ModelForces
version=1
nRows=4
nColumns=155
inDegrees=no

This file contains the forces exerted on a model during a simulation.

A force is a generalized force, meaning that it can be either a force (N) or a torque (Nm).

Units are S.I. units (second, meters, Newtons, ...)
Angles are in degrees.

endheader
time	glut_med1_r	glut_med2_r	glut_med3_r	glut_min1_r	glut_min2_r	glut_min3_r	semimem_r	semiten_r	bifemlh_r	bifemsh_r	sar_r	add_long_r	add_brev_r	add_mag1_r	add_mag2_r	add_mag3_r	tfl_r	pect_r	grac_r	glut_max1_r	glut_max2_r	glut_max3_r	iliacus_r	psoas_r	quad_fem_r	gem_r	peri_r	rect_fem_r	vas_med_r	vas_int_r	vas_lat_r	med_gas_r	lat_gas_r	soleus_r	tib_post_r	flex_dig_r	flex_hal_r	tib_ant_r	per_brev_r	per_long_r	per_tert_r	ext_dig_r	ext_hal_r	glut_med1_l	glut_med2_l	glut_med3_l	glut_min1_l	glut_min2_l	glut_min3_l	semimem_l	semiten_l	bifemlh_l	bifemsh_l	sar_l	add_long_l	add_brev_l	add_mag1_l	add_mag2_l	add_mag3_l	tfl_l	pect_l	grac_l	glut_max1_l	glut_max2_l	glut_max3_l	iliacus_l	psoas_l	quad_fem_l	gem_l	peri_l	rect_fem_l	vas_med_l	vas_int_l	vas_lat_l	med_gas_l	lat_gas_l	soleus_l	tib_post_l	flex_dig_l	flex_hal_l	tib_ant_l	per_brev_l	per_long_l	per_tert_l	ext_dig_l	ext_hal_l	ercspn_r	ercspn_l	intobl_r	intobl_l	extobl_r	extobl_l	femur_lat_meniscii_r.femur_lat_r.force.X	femur_lat_meniscii_r.femur_lat_r.force.Y	femur_lat_meniscii_r.femur_lat_r.force.Z	femur_lat_meniscii_r.femur_lat_r.torque.X	femur_lat_meniscii_r.femur_lat_r.torque.Y	femur_lat_meniscii_r.femur_lat_r.torque.Z	femur_lat_meniscii_r.meniscus_lat_r.force.X	femur_lat_meniscii_r.meniscus_lat_r.force.Y	femur_lat_meniscii_r.meniscus_lat_r.force.Z	femur_lat_meniscii_r.meniscus_lat_r.torque.X	femur_lat_meniscii_r.meniscus_lat_r.torque.Y	femur_lat_meniscii_r.meniscus_lat_r.torque.Z	femur_med_meniscii_r.femur_med_r.force.X	femur_med_meniscii_r.femur_med_r.force.Y	femur_med_meniscii_r.femur_med_r.force.Z	femur_med_meniscii_r.femur_med_r.torque.X	femur_med_meniscii_r.femur_med_r.torque.Y	femur_med_meniscii_r.femur_med_r.torque.Z	femur_med_meniscii_r.meniscus_med_r.force.X	femur_med_meniscii_r.meniscus_med_r.force.Y	femur_med_meniscii_r.meniscus_med_r.force.Z	femur_med_meniscii_r.meniscus_med_r.torque.X	femur_med_meniscii_r.meniscus_med_r.torque.Y	femur_med_meniscii_r.meniscus_med_r.torque.Z	femur_med_tibia_r.tibia_upper_r.force.X	femur_med_tibia_r.tibia_upper_r.force.Y	femur_med_tibia_r.tibia_upper_r.force.Z	femur_med_tibia_r.tibia_upper_r.torque.X	femur_med_tibia_r.tibia_upper_r.torque.Y	femur_med_tibia_r.tibia_upper_r.torque.Z	femur_med_tibia_r.femur_med_r.force.X	femur_med_tibia_r.femur_med_r.force.Y	femur_med_tibia_r.femur_med_r.force.Z	femur_med_tibia_r.femur_med_r.torque.X	femur_med_tibia_r.femur_med_r.torque.Y	femur_med_tibia_r.femur_med_r.torque.Z	femur_lat_tibia_r.tibia_upper_r.force.X	femur_lat_tibia_r.tibia_upper_r.force.Y	femur_lat_tibia_r.tibia_upper_r.force.Z	femur_lat_tibia_r.tibia_upper_r.torque.X	femur_lat_tibia_r.tibia_upper_r.torque.Y	femur_lat_tibia_r.tibia_upper_r.torque.Z	femur_lat_tibia_r.femur_lat_r.force.X	femur_lat_tibia_r.femur_lat_r.force.Y	femur_lat_tibia_r.femur_lat_r.force.Z	femur_lat_tibia_r.femur_lat_r.torque.X	femur_lat_tibia_r.femur_lat_r.torque.Y	femur_lat_tibia_r.femur_lat_r.torque.Z	aACL_R	pACL_R	aPCL_R	pPCL_R	aMCL_R	mMCL_R	pMCL_R	aLCL_R	mLCL_R	pLCL_R	aPCL_L	pPCL_L	aMCL_L	aLCL_L
      0.11363250	     11.57260231	     10.93665592	     11.79464685	      4.99653647	      5.73451749	      6.38059103	    113.61157484	    168.03321361	    212.30919537	    350.81425562	    126.86840326	     10.91796843	      7.73650224	      0.00000000	      4.73283597	      8.20246343	      5.03153291	      4.10367207	    100.48893977	      7.07036962	     10.76428305	      8.11991634	     32.35545106	     24.01160305	      6.87912601	      4.44991098	      4.95689373	     37.72128447	      0.00000000	      0.00000000	      0.00000000	     36.41494782	      0.88879291	      0.00000000	      0.00000000	      0.17490063	      0.00000000	     27.89168806	      5.03772749	      5.48600556	      7.01243169	     18.06385489	      5.26847249	     11.57260231	     10.93665592	     11.79464685	      4.99653647	      5.73451749	      6.38059103	      0.00000000	      8.22983908	     14.81950568	     13.75576054	      2.84749125	     10.91796843	      7.73650224	      0.00000000	      4.73283597	      8.20246343	      6.68167446	      4.10367207	      2.95266355	      7.07036962	     10.76428305	      8.11991634	     32.35545106	     24.01160305	      6.87912601	      4.44991098	      4.95689373	     22.71647809	      0.00000000	      0.00000000	      0.00000000	     17.95655703	      9.05151284	     58.11868805	     57.13076262	      7.36825557	      6.72768455	     16.61175519	      9.23434181	     21.53956854	      3.70765580	     11.97785096	      4.00586026	     47.05751953	     47.05751953	     17.82965186	     17.82965186	     34.81483966	     34.81483966	     65.68665227	    304.89936446	     41.05411896	    -24.22287694	      1.64028483	     25.60237325	    -65.68665227	   -304.89936446	    -41.05411896	      9.13410542	     -2.21442066	      2.80365684	    -24.48014680	     72.77948918	     15.11836332	     -4.46677563	      0.57148591	     -9.98922723	     24.48014680	    -72.77948918	    -15.11836332	     -1.16826874	     -0.68614846	      1.41676285	   -147.14967674	   -549.43911896	    119.83926541	    -12.92635548	      3.40847399	     -0.21392641	    147.14967674	    549.43911896	   -119.83926541	     59.83327298	     -2.40633100	     62.40518136	    -23.34670669	    -73.37729788	    -18.65595277	      2.48189444	     -0.81070981	      0.08331209	     23.34670669	     73.37729788	     18.65595277	     -9.46816959	      0.56273810	      9.63487347	      5.68655044	    -11.79585793	     32.47186786	     72.19386462	      0.00000000	      0.00000000	      0.00000000	      0.00000000	      0.00000000	      0.00000000	      0.00000000	      0.00000000	      0.00000001	      0.00000000
      0.11489059	     11.93149784	     10.84868469	     11.69945644	      4.95778054	      5.69182358	      6.33427380	    113.00588947	    167.89624986	    208.86969396	    348.19841988	    126.99799485	     10.82908530	      7.67703451	      0.00000000	      4.70256039	      8.13340485	      5.03549916	      4.11267274	    100.45863446	      7.01339595	     10.67690989	      8.05318090	     32.19099672	     23.82427050	      6.83173851	      4.42285110	      5.10620054	     37.66139380	      0.00000000	      0.00000000	      0.00000000	     39.83492184	      0.93467816	      0.00000000	      0.00000000	      0.00000000	      0.00000000	     25.99174638	      5.50489411	      5.74759421	      8.52322778	     18.30942865	      5.24321598	     11.93149784	     10.84868469	     11.69945644	      4.95778054	      5.69182358	      6.33427380	      0.00000000	      8.16023154	     14.78715196	     13.64672424	      2.82550428	     10.82908530	      7.67703451	      0.00000000	      4.70256039	      8.13340485	      6.64057260	      4.11267274	      2.92948282	      7.01339595	     10.67690989	      8.05318090	     32.19099672	     23.82427050	      6.83173851	      4.42285110	      5.10620054	     22.53901452	      0.00000000	      0.00000000	      0.00000000	     18.27618059	      9.16815694	     58.08768321	     56.98176972	      7.26110609	      6.61429472	     16.55087893	      9.17766015	     21.47261636	      3.67898042	     12.01394610	      4.00175339	     46.69174842	     46.69174842	     17.68149608	     17.68149608	     34.67863994	     34.67863994	     64.32917593	    306.24086769	     40.63152405	    -24.09215705	      1.59750594	     24.98646457	    -64.32917593	   -306.24086769	    -40.63152405	      9.15459403	     -2.17124255	      2.98744837	    -21.68139627	     72.04636875	     16.06429622	     -4.86737333	      0.50395542	     -8.83850586	     21.68139627	    -72.04636875	    -16.06429622	     -1.13399579	     -0.63895081	      1.34411380	   -156.48748213	   -552.82543742	    119.98892078	    -12.98035279	      3.60519701	     -0.30592657	    156.48748213	    552.82543742	   -119.98892078	     59.93291974	     -2.58623936	     66.23530267	    -20.47209453	    -63.33952089	    -16.12622020	      2.13903512	     -0.71278619	      0.08588953	     20.47209453	     63.33952089	     16.12622020	     -8.18105151	      0.49493856	      8.44004487	      4.65131077	    -12.29869519	     36.75848497	     78.25728606	      0.00000000	      0.00000000	      0.00000000	      0.00000000	      0.00000000	      0.00000000	      0.00000000	      0.00000000	      0.00000001	      0.00000000
      0.11614868	     12.21673127	     10.76219755	     11.60577170	      4.91968392	      5.64986370	      6.28799507	    112.27407059	    167.62583631	    205.35230017	    345.45361888	    127.01969656	     10.74173289	      7.61857507	      0.00000000	      4.67164737	      8.06537872	      5.03902567	      4.10571514	    100.33250991	      6.95734563	     10.59103560	      7.98759496	     32.02942815	     23.64020742	      6.78350687	      4.39624827	      5.24258450	     36.58368596	      0.00000000	      0.00000000	      0.00000000	     43.09350148	      0.99395927	      0.00000000	      0.00000000	      0.00000000	      0.00000000	     27.20637474	      5.91747027	      5.96561283	     12.26806431	     18.53252099	      5.15919084	     12.21673127	     10.76219755	     11.60577170	      4.91968392	      5.64986370	      6.28799507	      0.00000000	      8.09182213	     14.75117562	     13.53955664	      2.80389073	     10.74173289	      7.61857507	      0.00000000	      4.67164737	      8.06537872	      6.60000640	      4.10571514	      2.90669801	      6.95734563	     10.59103560	      7.98759496	     32.02942815	     23.64020742	      6.78350687	      4.39624827	      5.24258450	     22.36292400	      0.00000000	      0.00000000	      0.00000000	     18.57328553	      9.27609813	     58.04512751	     56.83074039	      7.15892792	      6.50657351	     16.48623396	      9.12048495	     21.40366841	      3.65078904	     12.03005112	      3.99022076	     46.33220382	     46.33220382	     17.53588980	     17.53588980	     34.54484813	     34.54484813	     62.12105367	    306.08215376	     38.20954787	    -23.04367609	      1.52347143	     24.00310168	    -62.12105367	   -306.08215376	    -38.20954787	      9.01939510	     -2.07280135	      3.19803658	    -19.34842776	     73.33245450	     17.00286128	     -5.21679284	      0.44923390	     -7.86524727	     19.34842776	    -73.33245450	    -17.00286128	     -1.14410664	     -0.60381165	      1.29353936	   -167.01741335	   -560.03299226	    122.37518345	    -13.17601728	      3.84457210	     -0.39470934	    167.01741335	    560.03299226	   -122.37518345	     61.03790756	     -2.78511517	     70.56498168	    -17.77029432	    -54.61139041	    -13.87300000	      1.83919045	     -0.62191899	      0.09290941	     17.77029432	     54.61139041	     13.87300000	     -7.03917206	      0.43161994	      7.31700190	      3.66599268	    -12.72756716	     41.55415763	     83.94512835	      0.00000000	      0.00000000	      0.00000000	      0.00000000	      0.00000000	      0.00000000	      0.00000000	      0.00000000	      0.00000001	      0.00000000
      0.11740677	     12.44106976	     10.67717298	     11.51358730	      4.88223490	      5.60862463	      6.24183167	    110.82186451	    167.25605973	    201.78029531	    342.58798174	    126.98909058	     10.65588374	      7.56110608	      0.00000000	      4.64026926	      7.99838114	      5.04036512	      4.09132587	    100.16078784	      6.90221263	     10.50663509	      7.92313844	     31.87069217	     23.45935442	      6.73484312	      4.37009631	      5.36710375	     37.41951996	      0.00000000	      0.00000000	      0.00000000	     45.93177765	      1.06760052	      0.00000000	      0.00000000	      0.00000000	      0.00000000	     25.40999960	      6.26619537	      6.13240383	     20.61015844	     18.91073726	      5.33423328	     12.44106976	     10.67717298	     11.51358730	      4.88223490	      5.60862463	      6.24183167	      0.00000000	      8.02458942	     14.71174880	     13.43422427	      2.78264398	     10.65588374	      7.56110608	      0.00000000	      4.64026926	      7.99838114	      6.55997922	      4.09132587	      2.88430202	      6.90221263	     10.50663509	      7.92313844	     31.87069217	     23.45935442	      6.73484312	      4.37009631	      5.36710375	     22.18830362	      0.00000000	      0.00000000	      0.00000000	     18.84919207	      9.37581221	     57.99121629	     56.67786642	      7.06169182	      6.40450442	     16.41811496	      9.06290264	     21.33282155	      3.62307477	     12.02722580	      3.97229273	     45.97877494	     45.97877494	     17.39278780	     17.39278780	     34.41341931	     34.41341931	     62.25207835	    309.97623004	     41.97556180	    -24.71221714	      1.55397601	     23.99861321	    -62.25207835	   -309.97623004	    -41.97556180	      9.24274732	     -2.15359088	      3.37143156	    -18.00934933	     73.62931279	     18.94737921	     -6.01296105	      0.41563073	     -7.32567574	     18.00934933	    -73.62931279	    -18.94737921	     -1.09416015	     -0.59980133	      1.28609249	   -178.15874955	   -569.65120639	    124.46979503	    -13.39910380	      4.08856771	     -0.47142502	    178.15874955	    569.65120639	   -124.46979503	     62.06326616	     -2.99097387	     75.14971918	    -16.59195792	    -49.70942425	    -13.04280226	      1.68658594	     -0.58634144	      0.08966128	     16.59195792	     49.70942425	     13.04280226	     -6.58074145	      0.40518754	      6.82669584	      2.07258391	      0.00000000	     47.57076053	     90.78312917	      0.00000000	      0.00000000	      0.00000000	      0.00000000	      0.00000000	      0.00000000	      0.00000000	      0.00000000	      0.00000001	      0.00000000
